#!OML:ASF F:\VICON\USERDATA\INSTALL\rory3\rory3.ASF
:FULLY-SPECIFIED
:DEGREES
391
root 0.729773 17.7756 -17.0738 3.76784 -0.270715 0.707698
lowerback 5.32346 -0.434498 -1.02778
upperback -0.528385 -0.572493 2.10277
thorax -3.50034 -0.245057 2.79689
lowerneck -20.1313 -3.5204 -9.40406
upperneck 15.6962 -3.32731 6.2737
head 8.4598 -1.4888 3.22807
rclavicle -8.15017e-015 1.82882e-014
rhumerus -37.5096 -15.1758 -72.8541
rradius 41.2349
rwrist 2.73451
rhand -10.9752 11.5314
rfingers 7.12502
rthumb 15.0444 -17.902
lclavicle -8.15017e-015 1.82882e-014
lhumerus -37.3917 9.47157 80.3187
lradius 38.5173
lwrist -2.72088
lhand -18.5491 22.3038
lfingers 7.12502
lthumb 7.74034 52.1421
rfemur -5.6277 2.71948 24.8392
rtibia 18.7603
rfoot -11.0844 -11.2818
rtoes 5.59542
lfemur -9.18612 -5.349 -19.4579
ltibia 21.9562
lfoot -12.2779 5.20392
ltoes -0.79528
392
root 0.730344 17.7783 -17.0644 3.72379 -0.28872 0.705732
lowerback 5.22119 -0.425587 -1.07434
upperback -0.470057 -0.562891 2.14404
thorax -3.38217 -0.240893 2.86309
lowerneck -20.2873 -3.52681 -9.46679
upperneck 15.8005 -3.31571 6.32158
head 8.5232 -1.48068 3.25721
rclavicle 1.44119e-015 1.74931e-014
rhumerus -37.4962 -14.853 -73.0556
rradius 41.4475
rwrist 2.2544
rhand -11.2579 11.0969
rfingers 7.12502
rthumb 14.7721 -18.3567
lclavicle 1.44119e-015 1.74931e-014
lhumerus -37.1833 9.56373 80.3812
lradius 38.2548
lwrist -2.85159
lhand -18.5915 21.8161
lfingers 7.12502
lthumb 7.69942 51.656
rfemur -5.44846 2.78887 24.8315
rtibia 18.5817
rfoot -11.0573 -11.2818
rtoes 6.13226
lfemur -9.11675 -5.19049 -19.4846
ltibia 21.995
lfoot -12.3475 5.1422
ltoes -0.839978
393
root 0.73317 17.7818 -17.0573 3.70514 -0.139436 0.640923
lowerback 5.20184 -0.498405 -1.00142
upperback -0.531979 -0.652679 2.20171
thorax -3.43035 -0.285319 2.88937
lowerneck -20.2457 -3.5062 -9.60013
upperneck 15.9745 -3.27856 6.41982
head 8.57615 -1.46357 3.32046
rclavicle -1.19768e-014 -1.43125e-014
rhumerus -37.7658 -14.3507 -73.2312
rradius 41.8022
rwrist 1.68919
rhand -11.8762 15.5622
rfingers 7.12502
rthumb 14.1763 -13.9341
lclavicle -1.19768e-014 -1.43125e-014
lhumerus -37.2267 9.60532 80.441
lradius 38.1398
lwrist -2.92949
lhand -18.7392 21.8303
lfingers 7.12502
lthumb 7.55693 51.6753
rfemur -5.36068 2.77624 24.9114
rtibia 18.4889
rfoot -10.9865 -11.4022
rtoes 6.03956
lfemur -9.08737 -5.20191 -19.4049
ltibia 21.9532
lfoot -12.3428 4.95565
ltoes -0.605146
394
root 0.738569 17.7866 -17.0556 3.6953 -0.0651528 0.560739
lowerback 5.21489 -0.529651 -0.855761
upperback -0.593792 -0.684314 2.19832
thorax -3.50148 -0.302556 2.80718
lowerneck -20.0869 -3.49379 -9.56525
upperneck 15.9903 -3.29738 6.46297
head 8.55573 -1.46844 3.32785
rclavicle 1.14301e-015 4.77083e-015
rhumerus -37.8453 -14.4106 -73.2939
rradius 41.7338
rwrist 1.66994
rhand -12.0725 17.8756
rfingers 7.12502
rthumb 13.9871 -11.6338
lclavicle 1.14301e-015 4.77083e-015
lhumerus -37.2119 9.5186 80.5019
lradius 38.0829
lwrist -2.82396
lhand -19.0493 23.1297
lfingers 7.12502
lthumb 7.25754 52.9852
rfemur -5.30546 2.76088 24.9595
rtibia 18.4352
rfoot -11.1194 -11.3394
rtoes 7.20225
lfemur -9.07173 -5.23119 -19.3279
ltibia 21.8861
lfoot -12.3086 4.9059
ltoes -0.676538
395
root 0.742554 17.7873 -17.0507 3.76013 -0.00738183 0.588155
lowerback 5.05447 -0.541969 -0.857388
upperback -0.660894 -0.701101 2.17771
thorax -3.47982 -0.310775 2.78633
lowerneck -19.8457 -3.49362 -9.60665
upperneck 15.9671 -3.33378 6.58609
head 8.51207 -1.47899 3.37278
rclavicle 1.32689e-014 2.22639e-014
rhumerus -37.8825 -14.5516 -73.2982
rradius 41.5195
rwrist 1.81764
rhand -11.9426 16.4619
rfingers 7.12502
rthumb 14.1123 -13.0388
lclavicle 1.32689e-014 2.22639e-014
lhumerus -37.2385 9.64353 80.4065
lradius 37.8869
lwrist -3.15319
lhand -18.7945 22.5725
lfingers 7.12502
lthumb 7.50355 52.4195
rfemur -5.31882 2.75926 24.9069
rtibia 18.4218
rfoot -11.2302 -11.3192
rtoes 7.98682
lfemur -9.15 -5.20268 -19.3634
ltibia 21.8158
lfoot -12.2018 4.86214
ltoes -0.9227
396
root 0.747926 17.7798 -17.0429 3.78487 0.0570159 0.624677
lowerback 4.99024 -0.540437 -0.83248
upperback -0.727753 -0.698074 2.14005
thorax -3.51366 -0.309229 2.73282
lowerneck -19.8265 -3.49515 -9.62875
upperneck 16.0735 -3.35942 6.70151
head 8.54957 -1.48166 3.41447
rclavicle -9.39258e-015 -6.36111e-015
rhumerus -37.9058 -14.7586 -73.2739
rradius 41.2197
rwrist 2.0017
rhand -11.6562 13.3651
rfingers 7.12502
rthumb 14.3883 -16.1162
lclavicle -9.39258e-015 -6.36111e-015
lhumerus -37.3177 9.52073 80.4604
lradius 37.9743
lwrist -3.24318
lhand -18.7901 23.4366
lfingers 7.12502
lthumb 7.50777 53.2834
rfemur -5.32975 2.53999 24.88
rtibia 18.4358
rfoot -11.0988 -11.3548
rtoes 6.57349
lfemur -9.22098 -5.14383 -19.4153
ltibia 21.7658
lfoot -12.0803 4.76097
ltoes -1.00384
397
root 0.753205 17.7749 -17.0382 3.75182 -0.0378126 0.593042
lowerback 4.9616 -0.512022 -0.792227
upperback -0.740553 -0.657068 2.15464
thorax -3.51323 -0.289381 2.72176
lowerneck -19.6875 -3.47973 -9.57428
upperneck 15.9945 -3.35083 6.63359
head 8.49557 -1.48295 3.38248
rclavicle 9.0944e-015 -7.95139e-015
rhumerus -37.871 -14.7982 -73.2715
rradius 40.984
rwrist 2.17032
rhand -11.454 12.1203
rfingers 7.12502
rthumb 14.5831 -17.347
lclavicle 9.0944e-015 -7.95139e-015
lhumerus -37.3834 9.57182 80.4399
lradius 37.904
lwrist -3.40167
lhand -18.7283 22.9011
lfingers 7.12502
lthumb 7.56744 52.7457
rfemur -5.30272 2.54848 24.8977
rtibia 18.405
rfoot -11.0144 -11.3449
rtoes 5.61509
lfemur -9.19513 -5.09299 -19.4176
ltibia 21.7598
lfoot -12.0139 4.83223
ltoes -1.42648
398
root 0.75416 17.7756 -17.0381 3.70356 -0.0463692 0.467589
lowerback 4.9347 -0.530228 -0.725878
upperback -0.734165 -0.674661 2.23568
thorax -3.4904 -0.298944 2.76926
lowerneck -19.4669 -3.45665 -9.63862
upperneck 15.8692 -3.32058 6.64781
head 8.41359 -1.47378 3.40095
rclavicle 9.69075e-015 3.97569e-015
rhumerus -37.9806 -14.4287 -73.3713
rradius 41.1372
rwrist 2.05632
rhand -11.5152 13.9694
rfingers 7.12502
rthumb 14.5242 -15.5022
lclavicle 9.69075e-015 3.97569e-015
lhumerus -37.4373 9.57879 80.5323
lradius 38.0131
lwrist -3.30773
lhand -18.8433 24.3979
lfingers 7.12502
lthumb 7.45637 54.2465
rfemur -5.20857 2.65295 25.029
rtibia 18.2838
rfoot -10.9735 -11.3735
rtoes 5.93382
lfemur -9.17787 -5.07687 -19.2799
ltibia 21.8273
lfoot -12.0814 4.81526
ltoes -1.49589
399
root 0.753167 17.7766 -17.0317 3.67052 0.056695 0.345078
lowerback 4.89918 -0.55907 -0.646314
upperback -0.746706 -0.706161 2.29603
thorax -3.48192 -0.315596 2.789
lowerneck -19.434 -3.47523 -9.76043
upperneck 15.942 -3.34312 6.77415
head 8.43901 -1.48015 3.46267
rclavicle -5.61567e-015 -1.82882e-014
rhumerus -38.1748 -14.1081 -73.4879
rradius 41.3082
rwrist 1.72411
rhand -11.4435 15.2024
rfingers 7.12502
rthumb 14.5933 -14.2642
lclavicle -5.61567e-015 -1.82882e-014
lhumerus -37.4451 9.67972 80.5031
lradius 37.7501
lwrist -3.29069
lhand -18.9759 22.1901
lfingers 7.12502
lthumb 7.32839 52.0432
rfemur -5.07307 2.71233 25.1924
rtibia 18.1604
rfoot -10.933 -11.5046
rtoes 6.02619
lfemur -9.1543 -4.98759 -19.1233
ltibia 21.9025
lfoot -12.1768 4.61647
ltoes -1.16419
400
root 0.754171 17.7802 -17.0198 3.74494 0.00374133 0.348611
lowerback 4.64555 -0.553049 -0.680005
upperback -0.727847 -0.70172 2.30049
thorax -3.3193 -0.314499 2.80794
lowerneck -19.5546 -3.49751 -9.82068
upperneck 16.0542 -3.37043 6.88001
head 8.50348 -1.48476 3.50683
rclavicle 1.41634e-014 1.59028e-015
rhumerus -38.0169 -14.247 -73.5261
rradius 40.9659
rwrist 1.74799
rhand -11.0412 14.0378
rfingers 7.12502
rthumb 14.9808 -15.4003
lclavicle 1.41634e-014 1.59028e-015
lhumerus -37.365 9.67291 80.5689
lradius 37.719
lwrist -3.09988
lhand -19.2088 21.7307
lfingers 7.12502
lthumb 7.10365 51.5915
rfemur -5.05544 2.75975 25.1782
rtibia 18.0566
rfoot -10.9228 -11.4874
rtoes 6.03923
lfemur -9.14524 -4.94171 -19.1283
ltibia 21.9647
lfoot -12.3241 4.58102
ltoes -0.815495
401
root 0.759756 17.7812 -17.0128 3.86032 -0.184165 0.400696
lowerback 4.41015 -0.486385 -0.69674
upperback -0.720024 -0.616691 2.24922
thorax -3.18348 -0.273737 2.75448
lowerneck -19.7127 -3.5118 -9.77456
upperneck 16.1507 -3.40193 6.93052
head 8.56665 -1.48952 3.51354
rclavicle -4.27387e-015 -2.62396e-014
rhumerus -37.8164 -14.5844 -73.5275
rradius 40.5335
rwrist 1.96255
rhand -10.9542 13.4553
rfingers 7.12502
rthumb 15.0646 -15.9766
lclavicle -4.27387e-015 -2.62396e-014
lhumerus -37.2541 9.77142 80.4587
lradius 37.5618
lwrist -3.41531
lhand -18.7916 21.8188
lfingers 7.12502
lthumb 7.5063 51.6656
rfemur -5.15376 2.71553 25.0793
rtibia 18.0005
rfoot -10.7982 -11.301
rtoes 5.44498
lfemur -9.15032 -4.89821 -19.2187
ltibia 21.9699
lfoot -12.4673 4.69841
ltoes -0.722311
402
root 0.768403 17.7788 -17.003 3.81898 -0.286835 0.381962
lowerback 4.30122 -0.420578 -0.588518
upperback -0.670107 -0.526329 2.18199
thorax -3.0768 -0.232627 2.61559
lowerneck -19.783 -3.5581 -9.68416
upperneck 16.1871 -3.49742 6.98218
head 8.59918 -1.52235 3.50406
rclavicle -5.11871e-015 1.90833e-014
rhumerus -37.748 -14.8145 -73.5962
rradius 40.3331
rwrist 2.04748
rhand -10.9868 13.5305
rfingers 7.12502
rthumb 15.0333 -15.9037
lclavicle -5.11871e-015 1.90833e-014
lhumerus -37.1573 9.59702 80.4295
lradius 37.5127
lwrist -3.41724
lhand -18.6675 22.469
lfingers 7.12502
lthumb 7.62606 52.3115
rfemur -5.08138 2.49592 25.0637
rtibia 17.9897
rfoot -10.7593 -11.1512
rtoes 3.89445
lfemur -8.99687 -4.97555 -19.2558
ltibia 21.9277
lfoot -12.4798 4.873
ltoes -0.407898
